<svg width="66" height="64" viewBox="0 0 66 64" fill="none" xmlns="http://www.w3.org/2000/svg">
<ellipse cx="33" cy="32.0625" rx="30" ry="29.0625" fill="#9A9A9A" stroke="#4C514E" stroke-width="5"/>
<path d="M22.9645 34.2955C22.2145 34.2955 21.5705 34.0303 21.0327 33.5C20.5024 32.9621 20.2372 32.3182 20.2372 31.5682C20.2372 30.8258 20.5024 30.1894 21.0327 29.6591C21.5705 29.1288 22.2145 28.8636 22.9645 28.8636C23.6918 28.8636 24.3281 29.1288 24.8736 29.6591C25.419 30.1894 25.6918 30.8258 25.6918 31.5682C25.6918 32.0682 25.563 32.5265 25.3054 32.9432C25.0554 33.3523 24.7259 33.6818 24.3168 33.9318C23.9077 34.1742 23.4569 34.2955 22.9645 34.2955ZM32.4957 34.2955C31.7457 34.2955 31.1018 34.0303 30.5639 33.5C30.0336 32.9621 29.7685 32.3182 29.7685 31.5682C29.7685 30.8258 30.0336 30.1894 30.5639 29.6591C31.1018 29.1288 31.7457 28.8636 32.4957 28.8636C33.223 28.8636 33.8594 29.1288 34.4048 29.6591C34.9503 30.1894 35.223 30.8258 35.223 31.5682C35.223 32.0682 35.0942 32.5265 34.8366 32.9432C34.5866 33.3523 34.2571 33.6818 33.848 33.9318C33.4389 34.1742 32.9882 34.2955 32.4957 34.2955ZM42.027 34.2955C41.277 34.2955 40.633 34.0303 40.0952 33.5C39.5649 32.9621 39.2997 32.3182 39.2997 31.5682C39.2997 30.8258 39.5649 30.1894 40.0952 29.6591C40.633 29.1288 41.277 28.8636 42.027 28.8636C42.7543 28.8636 43.3906 29.1288 43.9361 29.6591C44.4815 30.1894 44.7543 30.8258 44.7543 31.5682C44.7543 32.0682 44.6255 32.5265 44.3679 32.9432C44.1179 33.3523 43.7884 33.6818 43.3793 33.9318C42.9702 34.1742 42.5194 34.2955 42.027 34.2955Z" fill="#F9FFF9"/>
</svg>
